<svg width="134" height="48" viewBox="0 0 134 48" fill="none" xmlns="http://www.w3.org/2000/svg">
<g clip-path="url(#clip0_4516_1424)">
<path d="M14.7776 6H0.142578V41L14.7776 6Z" fill="#FA0C00"/>
<path d="M25.0742 6H39.6901V41L25.0742 6Z" fill="#FA0C00"/>
<path d="M19.9267 18.9004L29.2416 41.0006H23.1302L20.3462 33.9644H13.5293L19.9267 18.9004Z" fill="#FA0C00"/>
<path d="M63.5652 28.2569L65.2909 33.2052C65.3481 33.3291 65.4339 33.3863 65.5864 33.3863H68.9043C69.0855 33.3863 69.1141 33.3005 69.0855 33.1194L62.2304 14.0796C62.2018 13.927 62.1732 13.8984 62.0206 13.8984H57.9019C57.7875 13.8984 57.7207 13.9842 57.7207 14.1082C57.6635 15.1093 57.5777 15.4144 57.4538 15.7099L51.3423 33.0908C51.3137 33.3005 51.3805 33.3863 51.5521 33.3863H54.5172C54.6984 33.3863 54.7842 33.3291 54.8509 33.148L56.4813 28.2569H63.5652ZM57.4252 25.0248C58.3214 22.3171 59.5036 18.8467 59.9803 16.8636H60.0089C60.6 18.942 61.992 23.0608 62.6213 25.0248H57.4252Z" fill="#FA0C00"/>
<path d="M77.8998 33.6833C79.6827 33.6833 81.58 33.3591 83.5059 32.5297C83.6584 32.4725 83.687 32.4057 83.687 32.2627C83.6298 31.7288 83.5631 30.9565 83.5631 30.3654V12.4411C83.5631 12.3267 83.5631 12.2695 83.4201 12.2695H80.188C80.064 12.2695 80.0068 12.3267 80.0068 12.4793V18.5526C79.5015 18.4954 79.1487 18.4668 78.7292 18.4668C73.514 18.4668 70.3105 21.9086 70.3105 26.2085C70.3105 31.1949 73.5998 33.6833 77.8998 33.6833ZM80.0068 30.3654C79.4729 30.537 78.8818 30.6038 78.2811 30.6038C75.9167 30.6038 73.9812 29.269 73.9812 26.0274C73.9812 23.1576 75.9739 21.4605 78.6148 21.4605C79.1487 21.4605 79.6159 21.5177 80.0068 21.6702V30.3654Z" fill="#FA0C00"/>
<path d="M93.9969 18.4668C89.5444 18.4668 86.7891 21.88 86.7891 26.0941C86.7891 29.8602 88.9819 33.6834 93.9302 33.6834C98.1157 33.6834 101.052 30.6038 101.052 25.9988C101.052 21.9372 98.5638 18.4668 93.9969 18.4668ZM93.8158 21.4605C96.3328 21.4605 97.4006 23.6248 97.4006 26.0941C97.4006 29.1451 95.8275 30.661 93.9969 30.661C91.7373 30.661 90.4025 28.7637 90.4025 26.0274C90.4025 23.2148 91.8231 21.4605 93.8158 21.4605Z" fill="#FA0C00"/>
<path d="M104.393 12.2695C104.269 12.2695 104.184 12.3267 104.184 12.4793V32.768C104.184 32.8538 104.269 33.0064 104.393 33.035C105.814 33.4736 107.301 33.6833 108.836 33.6833C113.232 33.6833 117.503 30.9565 117.503 25.4648C117.503 21.4891 114.776 18.4668 110.505 18.4668C109.523 18.4668 108.607 18.6193 107.807 18.8863L107.768 12.5079C107.768 12.2981 107.711 12.2695 107.501 12.2695H104.393ZM113.851 25.8271C113.851 29.1164 111.601 30.661 109.17 30.661C108.665 30.661 108.217 30.6324 107.807 30.5084V21.8514C108.274 21.6702 108.836 21.5177 109.875 21.5177C112.221 21.5177 113.851 23.005 113.851 25.8271Z" fill="#FA0C00"/>
<path d="M129.567 26.895C131.016 26.895 132.208 26.8664 132.618 26.7711C132.77 26.7425 132.827 26.6853 132.856 26.5613C132.942 26.2372 132.98 25.5602 132.98 24.7308C132.98 21.9086 131.283 18.4668 126.897 18.4668C122.416 18.4668 119.928 22.1184 119.928 26.2372C119.928 29.8888 121.854 33.6834 127.25 33.6834C129.271 33.6834 130.577 33.3592 131.702 32.8253C131.817 32.7681 131.874 32.6727 131.874 32.5011V30.0318C131.874 29.8888 131.788 29.8602 131.702 29.9174C130.577 30.3941 129.357 30.6324 128.022 30.6324C125 30.6324 123.627 28.9639 123.541 26.895H129.567ZM123.541 24.3399C123.78 22.8907 124.695 21.3175 126.745 21.3175C129.004 21.3175 129.595 23.2148 129.595 24.0729C129.595 24.1015 129.595 24.2254 129.595 24.3113C129.471 24.3399 129.09 24.3399 127.965 24.3399H123.541Z" fill="#FA0C00"/>
</g>
<defs>
<clipPath id="clip0_4516_1424">
<rect width="133" height="48" fill="white" transform="translate(0.142578)"/>
</clipPath>
</defs>
</svg>
