<svg width="136" height="48" viewBox="0 0 136 48" fill="none" xmlns="http://www.w3.org/2000/svg">
<g clip-path="url(#clip0_4516_1426)">
<path d="M27.8309 16.7003C22.9501 16.7003 19.1365 20.4054 19.1365 25.3654C19.1365 30.3254 22.8538 33.9988 27.8309 33.9988C32.8079 33.9988 36.5898 30.262 36.5898 25.3337C36.5898 20.4371 32.8726 16.7003 27.8309 16.7003ZM27.8638 30.4242C25.0844 30.4242 23.0477 28.2656 23.0477 25.3666C23.0477 22.4348 25.0514 20.2774 27.8309 20.2774C30.6432 20.2774 32.6787 22.4677 32.6787 25.3666C32.6787 28.2656 30.6432 30.4242 27.8638 30.4242ZM37.6557 20.47H40.0801V33.678H43.9583V17.0223H37.6557V20.47ZM9.37625 20.2761C11.413 20.2761 13.0289 21.5323 13.6423 23.4007H17.7474C17.0035 19.4066 13.707 16.7003 9.40918 16.7003C4.52844 16.7003 0.714844 20.4054 0.714844 25.3666C0.714844 30.3279 4.43211 34 9.40918 34C13.6106 34 16.9718 31.2938 17.7157 27.2667H13.6423C13.0606 29.1351 11.4446 30.4242 9.40798 30.4242C6.59563 30.4242 4.62478 28.2656 4.62478 25.3666C4.62602 22.4348 6.56514 20.2761 9.37625 20.2761ZM111.345 23.7556L108.501 23.3373C107.144 23.1446 106.174 22.6933 106.174 21.6299C106.174 20.47 107.435 19.8907 109.147 19.8907C111.022 19.8907 112.218 20.6957 112.476 22.0165H116.226C115.805 18.6663 113.219 16.7016 109.245 16.7016C105.14 16.7016 102.425 18.7956 102.425 21.7591C102.425 24.5934 104.203 26.2374 107.79 26.7521L110.634 27.1704C112.024 27.3631 112.8 27.9119 112.8 28.9424C112.8 30.2632 111.443 30.8108 109.568 30.8108C107.273 30.8108 105.98 29.8766 105.786 28.4595H101.972C102.329 31.7133 104.881 34 109.535 34C113.769 34 116.58 32.067 116.58 28.7485C116.58 25.7849 114.545 24.2385 111.345 23.7556ZM42.0192 10.161C40.5972 10.161 39.5303 11.1915 39.5303 12.6087C39.5303 14.0258 40.5961 15.0563 42.0192 15.0563C43.4412 15.0563 44.5085 14.0258 44.5085 12.6087C44.5085 11.1915 43.4412 10.161 42.0192 10.161ZM98.9344 22.725C98.9344 19.1175 96.7369 16.7016 92.0828 16.7016C87.6874 16.7016 85.2312 18.9249 84.7459 22.3396H88.5923C88.7862 21.0189 89.8204 19.9237 92.0183 19.9237C93.9904 19.9237 94.9598 20.7932 94.9598 21.8567C94.9598 23.2422 93.1816 23.5958 90.9841 23.8215C88.0107 24.1434 84.3263 25.1739 84.3263 29.04C84.3263 32.0365 86.5568 33.9683 90.1122 33.9683C92.8913 33.9683 94.6366 32.8085 95.5099 30.9718C95.6393 32.6146 96.8675 33.678 98.5808 33.678H100.843V30.2315H98.9356V22.725H98.9344ZM95.1207 26.9131C95.1207 29.1363 93.1816 30.7791 90.8217 30.7791C89.3671 30.7791 88.1389 30.1669 88.1389 28.879C88.1389 27.2362 90.1107 26.785 91.9208 26.5923C93.6661 26.4313 94.6354 26.0447 95.1207 25.3032V26.9131ZM74.5332 16.7003C72.3672 16.7003 70.5575 17.6028 69.2648 19.1163V10H65.3866V33.678H69.2V31.4877C70.4926 33.0658 72.3357 34 74.5332 34C79.187 34 82.7104 30.3279 82.7104 25.3666C82.7104 20.4054 79.1225 16.7003 74.5332 16.7003ZM73.9516 30.4242C71.1721 30.4242 69.1355 28.2656 69.1355 25.3666C69.1355 22.4677 71.204 20.2774 73.9831 20.2774C76.7956 20.2774 78.7662 22.436 78.7662 25.3666C78.7662 28.2656 76.7307 30.4242 73.9516 30.4242ZM56.1102 16.7003C53.5895 16.7003 51.9406 17.7309 50.9712 19.1809V17.0223H47.1245V33.6768H51.0027V24.6252C51.0027 22.0799 52.6186 20.2761 55.0103 20.2761C57.2408 20.2761 58.6298 21.8543 58.6298 24.1422V33.678H62.5081V23.8531C62.5096 19.6639 60.3447 16.7003 56.1102 16.7003ZM135.068 24.8191C135.068 20.0517 131.577 16.7016 126.891 16.7016C121.914 16.7016 118.261 20.4383 118.261 25.3666C118.261 30.5535 122.172 34 126.956 34C130.996 34 134.163 31.6157 134.97 28.2339H130.93C130.348 29.7156 128.926 30.5535 127.019 30.5535C124.53 30.5535 122.655 29.0071 122.235 26.3008H135.067V24.8191H135.068ZM122.462 23.53C123.077 21.2103 124.822 20.0835 126.826 20.0835C129.024 20.0835 130.704 21.3396 131.092 23.53H122.462Z" fill="#0052FF"/>
</g>
<defs>
<clipPath id="clip0_4516_1426">
<rect width="135" height="48" fill="white" transform="translate(0.714844)"/>
</clipPath>
</defs>
</svg>
