<svg width="189" height="48" viewBox="0 0 189 48" fill="none" xmlns="http://www.w3.org/2000/svg">
<g clip-path="url(#clip0_4516_1422)">
<path d="M55.1736 21.2016V30.8144H57.5704C58.1821 30.8053 58.7857 30.6736 59.3456 30.4272C59.9055 30.1807 60.4103 29.8245 60.8301 29.3795C61.6917 28.4673 62.1631 27.2547 62.144 26.0001C62.1622 25.3769 62.0572 24.7562 61.8348 24.1737C61.6125 23.5913 61.2773 23.0585 60.8484 22.6059C60.4269 22.1604 59.9186 21.8058 59.3548 21.5641C58.791 21.3223 58.1838 21.1986 57.5704 21.2004H55.1748L55.1736 21.2016ZM57.5704 18.1876C62.0376 18.1876 65.4171 21.6489 65.4171 26.0001C65.4171 30.3512 62.0376 33.8321 57.5704 33.8321H52.2843C52.2339 33.8314 52.1841 33.8209 52.1378 33.801C52.0915 33.7811 52.0495 33.7523 52.0143 33.7162C51.9792 33.6801 51.9514 33.6374 51.9327 33.5906C51.914 33.5438 51.9048 33.4938 51.9054 33.4434V18.5922C51.9054 18.3771 52.0753 18.2023 52.2843 18.2023L57.5704 18.1876ZM76.9316 31.1493C78.9605 31.1554 80.7926 29.9075 81.5736 27.9874C81.9562 27.0492 82.0585 26.0203 81.868 25.0252C81.6775 24.0301 81.2025 23.1116 80.5005 22.3811C79.8108 21.6625 78.9194 21.1701 77.9439 20.9689C76.9684 20.7677 75.9549 20.8672 75.0372 21.2542C73.1623 22.0462 71.9376 23.9198 71.934 26.0001C71.934 28.8356 74.1682 31.1358 76.9328 31.1493H76.9316ZM76.9328 17.8332C81.6347 17.8332 85.2293 21.5389 85.2293 26.0001C85.2293 30.4612 81.6347 34.1669 76.9316 34.1669C72.2297 34.1669 68.6657 30.4795 68.6657 26.0001C68.6657 21.5206 72.2603 17.8332 76.9316 17.8332H76.9328ZM96.651 31.1493C99.4168 31.1419 101.655 28.8393 101.652 26.0037C101.649 23.1657 99.4058 20.8679 96.6412 20.8667C93.8741 20.8667 91.6301 23.1633 91.6264 26.0001C91.6264 27.3665 92.1556 28.6767 93.098 29.6423C93.5592 30.1181 94.1112 30.4967 94.7212 30.7555C95.3313 31.0143 95.987 31.1482 96.6497 31.1493H96.651ZM96.6497 17.8332C101.337 17.8332 104.932 21.5206 104.932 26.0001C104.932 30.4795 101.322 34.1669 96.6497 34.1669C91.9784 34.1669 88.3533 30.4795 88.3533 26.0001C88.3533 21.5206 91.9478 17.8332 96.6497 17.8332ZM115.895 21.2016H112.515V25.3388H115.895C116.162 25.3507 116.428 25.3076 116.678 25.2124C116.928 25.1172 117.156 24.9718 117.347 24.7852C117.738 24.4063 117.96 23.8807 117.965 23.3283C117.975 23.048 117.928 22.7686 117.827 22.5069C117.727 22.2452 117.574 22.0066 117.379 21.8054C117.187 21.6074 116.956 21.4517 116.7 21.3483C116.445 21.2449 116.17 21.1962 115.895 21.2053V21.2016ZM109.246 18.5922C109.246 18.3771 109.417 18.2023 109.626 18.2023H115.989C119.023 18.2023 121.218 20.4817 121.218 23.3442C121.241 25.2802 120.184 27.0585 118.496 27.9251L121.43 33.2454C121.471 33.3065 121.494 33.3777 121.496 33.4511C121.499 33.5245 121.481 33.5971 121.445 33.6609C121.41 33.7238 121.357 33.7752 121.293 33.809C121.23 33.8428 121.157 33.8576 121.086 33.8516H118.51C118.439 33.8526 118.369 33.8334 118.308 33.7962C118.247 33.759 118.198 33.7054 118.166 33.6414L115.338 28.3761H112.503V33.4312C112.504 33.4817 112.495 33.5318 112.476 33.5788C112.458 33.6257 112.43 33.6686 112.395 33.7048C112.359 33.741 112.317 33.7699 112.271 33.7899C112.225 33.8098 112.175 33.8204 112.124 33.8211H109.643C109.593 33.8204 109.543 33.8098 109.496 33.7899C109.45 33.7699 109.408 33.741 109.373 33.7048C109.338 33.6686 109.31 33.6257 109.291 33.5788C109.273 33.5318 109.263 33.4817 109.264 33.4312L109.247 18.5934L109.246 18.5922ZM129.739 21.2749V30.8889H132.135C132.746 30.8807 133.35 30.7498 133.91 30.5042C134.47 30.2586 134.975 29.9032 135.395 29.4589C136.257 28.5478 136.73 27.3361 136.712 26.0819C136.731 25.458 136.627 24.8363 136.406 24.2528C136.184 23.6692 135.849 23.1353 135.42 22.6817C134.998 22.2354 134.488 21.8804 133.923 21.6386C133.359 21.3969 132.75 21.2735 132.136 21.2762L129.739 21.2749ZM132.135 18.2573C136.602 18.2573 139.981 21.7223 139.981 26.0819C139.981 30.4416 136.602 33.9066 132.135 33.9066H126.864C126.814 33.906 126.764 33.8954 126.717 33.8754C126.671 33.8555 126.629 33.8265 126.594 33.7903C126.559 33.7541 126.531 33.7113 126.512 33.6643C126.494 33.6174 126.485 33.5672 126.485 33.5167V18.6667C126.485 18.4504 126.655 18.2756 126.864 18.2756L132.136 18.2573H132.135ZM149.95 22.0804L148.096 27.2211H151.8L149.95 22.0804ZM147.008 30.1263L145.794 33.5485C145.77 33.629 145.719 33.6992 145.651 33.7478C145.582 33.7965 145.499 33.821 145.415 33.8174H142.783C142.715 33.8236 142.648 33.8117 142.587 33.7829C142.526 33.7541 142.474 33.7094 142.437 33.6536C142.398 33.5971 142.375 33.5317 142.369 33.4636C142.363 33.3955 142.375 33.3271 142.404 33.2649L148.092 18.4284C148.118 18.3501 148.17 18.2827 148.238 18.2364C148.307 18.1901 148.388 18.1673 148.471 18.1717H151.416C151.499 18.1671 151.581 18.1897 151.65 18.236C151.718 18.2824 151.77 18.3499 151.796 18.4284L157.485 33.2649C157.513 33.3272 157.525 33.3957 157.519 33.4638C157.513 33.5319 157.489 33.5972 157.45 33.6536C157.413 33.7092 157.361 33.7536 157.3 33.7822C157.239 33.8108 157.171 33.8225 157.105 33.8162H154.473C154.389 33.8198 154.306 33.7953 154.238 33.7466C154.169 33.6979 154.119 33.6278 154.094 33.5473L152.881 30.1251H147.008V30.1263ZM160.537 22.4141C160.537 19.9574 162.607 17.8332 165.876 17.8332C167.637 17.7939 169.342 18.4525 170.619 19.6653C170.658 19.7021 170.689 19.7464 170.71 19.7956C170.731 19.8448 170.742 19.8977 170.742 19.9513C170.742 20.0048 170.731 20.0578 170.71 20.107C170.689 20.1562 170.658 20.2005 170.619 20.2373L169.161 21.7223C169.126 21.7584 169.084 21.787 169.038 21.8066C168.991 21.8262 168.942 21.8363 168.892 21.8363C168.841 21.8363 168.792 21.8262 168.746 21.8066C168.699 21.787 168.658 21.7584 168.623 21.7223C167.936 21.0786 167.034 20.7138 166.093 20.6993C164.785 20.6993 163.818 21.4778 163.818 22.3762C163.818 25.2802 171.546 23.6045 171.546 29.1925C171.543 32.0244 169.456 34.1669 165.768 34.1669C164.743 34.1774 163.727 33.9818 162.78 33.5917C161.833 33.2016 160.974 32.6249 160.254 31.8961C160.215 31.8593 160.184 31.8149 160.163 31.7658C160.142 31.7166 160.131 31.6636 160.131 31.6101C160.131 31.5565 160.142 31.5035 160.163 31.4544C160.184 31.4052 160.215 31.3608 160.254 31.3241L161.665 29.8769C161.7 29.8391 161.742 29.8089 161.79 29.7883C161.837 29.7677 161.888 29.757 161.94 29.757C161.991 29.757 162.042 29.7677 162.09 29.7883C162.137 29.8089 162.18 29.8391 162.215 29.8769C163.102 30.7569 164.298 31.2566 165.548 31.2703C167.182 31.2703 168.259 30.3756 168.259 29.2548C168.259 26.3496 160.534 28.0265 160.534 22.4373L160.537 22.4141ZM185.56 18.5726V24.4442H179.019V18.5726C179.02 18.5222 179.01 18.4722 178.992 18.4254C178.973 18.3786 178.945 18.3359 178.91 18.2998C178.875 18.2637 178.833 18.2349 178.787 18.215C178.74 18.1951 178.69 18.1846 178.64 18.1839H176.159C176.109 18.1846 176.059 18.1951 176.012 18.215C175.966 18.2349 175.924 18.2637 175.889 18.2998C175.854 18.3359 175.826 18.3786 175.807 18.4254C175.789 18.4722 175.779 18.5222 175.78 18.5726V33.4067C175.78 33.6218 175.951 33.7966 176.159 33.7966H178.64C178.848 33.7966 179.019 33.6218 179.019 33.4067V27.4423H185.555V33.4067C185.555 33.6218 185.727 33.7966 185.934 33.7966H188.415C188.624 33.7966 188.794 33.6218 188.794 33.4067V18.5726C188.795 18.5222 188.786 18.4722 188.767 18.4254C188.748 18.3786 188.721 18.3359 188.685 18.2998C188.65 18.2637 188.608 18.2349 188.562 18.215C188.516 18.1951 188.466 18.1846 188.415 18.1839H185.934C185.833 18.1865 185.738 18.2287 185.667 18.3015C185.597 18.3742 185.559 18.4717 185.56 18.5726ZM37.9782 20.1639C36.2573 16.9739 32.8901 14.9878 29.2283 15.0001H1.52295C1.33585 15.0008 1.15311 15.0566 0.997498 15.1605C0.841886 15.2644 0.720283 15.4118 0.647843 15.5843C0.57646 15.7557 0.557869 15.9445 0.594451 16.1265C0.631032 16.3086 0.72112 16.4755 0.853176 16.6061L6.88851 22.5949C7.4214 23.1254 8.1474 23.4224 8.90273 23.4224H28.4338C29.826 23.4077 30.9638 24.5102 30.9785 25.8827C30.9932 27.2553 29.8773 28.3797 28.4852 28.3932H15.02C14.8327 28.3932 14.6496 28.4485 14.4936 28.5519C14.3375 28.6554 14.2154 28.8025 14.1424 28.9749C14.0703 29.1465 14.0513 29.3358 14.0876 29.5183C14.124 29.7008 14.2142 29.8683 14.3465 29.9992L20.3855 35.9929C20.9217 36.5231 21.6457 36.8201 22.3997 36.8192H28.4901C36.4137 36.8192 42.4051 28.4592 37.9782 20.1603" fill="#FF3008"/>
</g>
<defs>
<clipPath id="clip0_4516_1422">
<rect width="188" height="48" fill="white" transform="translate(0.572266)"/>
</clipPath>
</defs>
</svg>
